<svg xmlns="http://www.w3.org/2000/svg" id="pinSVG" viewBox="-122.75999999999999 -122.75999999999999 1725.52 2291.52" preserveAspectRatio="xMidYMid meet" width="1726" height="2292">
      <defs>
        <filter id="gitd"><feGaussianBlur stdDeviation="6" result="b"/><feMerge><feMergeNode in="b"/><feMergeNode in="SourceGraphic"/></feMerge></filter>
        <filter id="glitterSparkle"><feTurbulence type="fractalNoise" baseFrequency="0.9" numOctaves="2" seed="3" result="noise"/>
          <feColorMatrix in="noise" type="matrix" values="0 0 0 0 0   0 0 0 0 0   0 0 0 0 0   0 0 0 5.5 -2.8" result="spark"/>
          <feComposite in="spark" in2="SourceAlpha" operator="in" result="clipped"/>
          <feBlend in="SourceGraphic" in2="clipped" mode="screen"/>
          <animate attributeName="opacity" values="1;0.6;1" dur="1s" repeatCount="indefinite"/>
        </filter>
      </defs>
      <g id="region-body"><path data-region="body" d="M717 0 L716 1 L696 1 L695 2 L682 2 L681 3 L671 3 L670 4 L661 4 L660 5 L653 5 L652 6 L645 6 L644 7 L638 7 L637 8 L631 8 L630 9 L624 9 L623 10 L618 10 L617 11 L612 11 L611 12 L606 12 L605 13 L601 13 L600 14 L596 14 L595 15 L590 15 L589 16 L585 16 L584 17 L581 17 L580 18 L577 18 L576 19 L572 19 L571 20 L568 20 L567 21 L564 21 L563 22 L560 22 L559 23 L556 23 L555 24 L553 24 L552 25 L549 25 L548 26 L545 26 L544 27 L542 27 L541 28 L538 28 L537 29 L535 29 L534 30 L532 30 L531 31 L528 31 L527 32 L525 32 L524 33 L521 33 L520 34 L518 34 L517 35 L515 35 L514 36 L512 36 L511 37 L508 37 L507 38 L505 38 L504 39 L503 39 L502 40 L500 40 L499 41 L497 41 L496 42 L494 42 L493 43 L491 43 L490 44 L488 44 L487 45 L486 45 L485 46 L483 46 L482 47 L480 47 L479 48 L478 48 L477 49 L475 49 L474 50 L473 50 L472 51 L470 51 L469 52 L468 52 L467 53 L465 53 L464 54 L462 54 L461 55 L460 55 L459 56 L458 56 L457 57 L455 57 L454 58 L453 58 L452 59 L450 59 L449 60 L448 60 L447 61 L446 61 L445 62 L443 62 L442 63 L441 63 L440 64 L439 64 L438 65 L437 65 L436 66 L434 66 L433 67 L432 67 L431 68 L430 68 L429 69 L428 69 L427 70 L426 70 L425 71 L424 71 L423 72 L422 72 L421 73 L420 73 L419 74 L418 74 L417 75 L416 75 L415 76 L414 76 L413 77 L411 77 L409 79 L407 79 L406 80 L405 80 L404 81 L403 81 L402 82 L401 82 L400 83 L399 83 L397 85 L396 85 L395 86 L394 86 L393 87 L392 87 L391 88 L390 88 L389 89 L388 89 L387 90 L386 90 L384 92 L383 92 L382 93 L381 93 L380 94 L379 94 L377 96 L376 96 L375 97 L374 97 L373 98 L372 98 L371 99 L370 99 L368 101 L367 101 L366 102 L365 102 L364 103 L363 103 L361 105 L360 105 L359 106 L358 106 L356 108 L355 108 L353 110 L352 110 L351 111 L350 111 L348 113 L347 113 L345 115 L344 115 L343 116 L342 116 L340 118 L339 118 L337 120 L336 120 L334 122 L333 122 L332 123 L331 123 L328 126 L327 126 L325 128 L324 128 L322 130 L321 130 L319 132 L318 132 L315 135 L314 135 L312 137 L311 137 L308 140 L307 140 L305 142 L304 142 L301 145 L300 145 L298 147 L297 147 L293 151 L292 151 L289 154 L288 154 L285 157 L284 157 L280 161 L279 161 L275 165 L274 165 L269 170 L268 170 L264 174 L263 174 L257 180 L256 180 L249 187 L248 187 L239 196 L238 196 L197 237 L197 238 L188 247 L188 248 L180 256 L180 257 L175 262 L175 263 L169 269 L169 270 L165 274 L165 275 L161 279 L161 280 L157 284 L157 285 L154 288 L154 289 L151 292 L151 293 L148 296 L148 297 L145 300 L145 301 L142 304 L142 305 L140 307 L140 308 L137 311 L137 312 L134 315 L134 316 L132 318 L132 319 L130 321 L130 322 L128 324 L128 325 L125 328 L125 329 L124 330 L124 331 L122 333 L122 334 L120 336 L120 337 L118 339 L118 340 L116 342 L116 343 L115 344 L115 345 L113 347 L113 348 L111 350 L111 351 L110 352 L110 353 L108 355 L108 356 L106 358 L106 359 L105 360 L105 361 L103 363 L103 364 L102 365 L102 366 L100 368 L100 369 L99 370 L99 371 L98 372 L98 373 L97 374 L97 375 L95 377 L95 378 L94 379 L94 380 L93 381 L93 382 L92 383 L92 384 L90 386 L90 387 L89 388 L89 389 L88 390 L88 391 L87 392 L87 393 L86 394 L86 395 L84 397 L84 398 L83 399 L83 401 L81 403 L81 404 L80 405 L80 406 L79 407 L79 408 L78 409 L78 410 L77 411 L77 412 L76 413 L76 415 L75 416 L75 417 L74 418 L74 419 L73 420 L73 421 L72 422 L72 423 L71 424 L71 425 L70 426 L70 427 L69 428 L69 429 L68 430 L68 431 L67 432 L67 433 L66 434 L66 436 L65 437 L65 438 L64 439 L64 440 L63 441 L63 442 L62 443 L62 445 L61 446 L61 447 L60 448 L60 449 L59 450 L59 452 L58 453 L58 454 L57 455 L57 456 L56 457 L56 459 L55 460 L55 461 L54 462 L54 464 L53 465 L53 467 L52 468 L52 469 L51 470 L51 472 L50 473 L50 474 L49 475 L49 477 L48 478 L48 479 L47 480 L47 482 L46 483 L46 485 L45 486 L45 487 L44 488 L44 490 L43 491 L43 493 L42 494 L42 496 L41 497 L41 499 L40 500 L40 501 L39 502 L39 504 L38 505 L38 507 L37 508 L37 511 L36 512 L36 514 L35 515 L35 517 L34 518 L34 520 L33 521 L33 523 L32 524 L32 527 L31 528 L31 530 L30 531 L30 534 L29 535 L29 537 L28 538 L28 541 L27 542 L27 544 L26 545 L26 548 L25 549 L25 551 L24 552 L24 555 L23 556 L23 559 L22 560 L22 563 L21 564 L21 567 L20 568 L20 571 L19 572 L19 575 L18 576 L18 580 L17 581 L17 585 L16 586 L16 589 L15 590 L15 594 L14 595 L14 600 L13 601 L13 605 L12 606 L12 611 L11 612 L11 617 L10 618 L10 623 L9 624 L9 630 L8 631 L8 636 L7 637 L7 644 L6 645 L6 652 L5 653 L5 660 L4 661 L4 670 L3 671 L3 681 L2 682 L2 696 L1 697 L1 717 L0 718 L0 763 L1 764 L1 785 L2 786 L2 799 L3 800 L3 810 L4 811 L4 820 L5 821 L5 828 L6 829 L6 836 L7 837 L7 843 L8 844 L8 850 L9 851 L9 857 L10 858 L10 863 L11 864 L11 869 L12 870 L12 875 L13 876 L13 880 L14 881 L14 885 L15 886 L15 890 L16 891 L16 895 L17 896 L17 900 L18 901 L18 904 L19 905 L19 909 L20 910 L20 913 L21 914 L21 917 L22 918 L22 921 L23 922 L23 925 L24 926 L24 928 L25 929 L25 932 L26 933 L26 936 L27 937 L27 939 L28 940 L28 943 L29 944 L29 946 L30 947 L30 950 L31 951 L31 953 L32 954 L32 956 L33 957 L33 960 L34 961 L34 963 L35 964 L35 966 L36 967 L36 969 L37 970 L37 972 L38 973 L38 975 L39 976 L39 978 L40 979 L40 981 L41 982 L41 984 L42 985 L42 987 L43 988 L43 990 L44 991 L44 993 L45 994 L45 995 L46 996 L46 998 L47 999 L47 1000 L48 1001 L48 1003 L49 1004 L49 1006 L50 1007 L50 1008 L51 1009 L51 1011 L52 1012 L52 1013 L53 1014 L53 1016 L54 1017 L54 1018 L55 1019 L55 1021 L56 1022 L56 1024 L57 1025 L57 1026 L58 1027 L58 1028 L59 1029 L59 1031 L60 1032 L60 1033 L61 1034 L61 1035 L62 1036 L62 1038 L63 1039 L63 1040 L64 1041 L64 1042 L65 1043 L65 1044 L66 1045 L66 1046 L67 1047 L67 1049 L68 1050 L68 1051 L69 1052 L69 1053 L70 1054 L70 1055 L71 1056 L71 1057 L72 1058 L72 1059 L73 1060 L73 1061 L74 1062 L74 1063 L75 1064 L75 1065 L76 1066 L76 1068 L77 1069 L77 1070 L78 1071 L78 1072 L79 1073 L79 1074 L81 1076 L81 1077 L82 1078 L82 1080 L84 1082 L84 1083 L85 1084 L85 1085 L86 1086 L86 1087 L87 1088 L87 1089 L88 1090 L88 1091 L89 1092 L89 1093 L91 1095 L91 1096 L92 1097 L92 1098 L93 1099 L93 1104 L94 1105 L94 1111 L95 1112 L95 1118 L96 1119 L96 1125 L97 1126 L97 1133 L98 1134 L98 1141 L99 1142 L99 1150 L100 1151 L100 1161 L101 1162 L101 1172 L102 1173 L102 1185 L103 1186 L103 1200 L104 1201 L104 1221 L105 1222 L105 1295 L104 1296 L104 1317 L103 1318 L103 1440 L104 1441 L104 1518 L105 1519 L105 1557 L106 1558 L106 1563 L107 1564 L107 1568 L108 1569 L108 1571 L109 1572 L109 1574 L110 1575 L110 1577 L111 1578 L111 1579 L112 1580 L112 1581 L113 1582 L113 1583 L114 1584 L114 1585 L115 1586 L115 1587 L117 1589 L117 1590 L119 1592 L119 1593 L121 1595 L121 1596 L133 1608 L134 1608 L137 1611 L138 1611 L139 1612 L140 1612 L142 1614 L143 1614 L144 1615 L145 1615 L146 1616 L147 1616 L148 1617 L149 1617 L150 1618 L151 1618 L152 1619 L154 1619 L155 1620 L157 1620 L158 1621 L161 1621 L162 1622 L166 1622 L167 1623 L177 1623 L178 1624 L182 1624 L183 1623 L192 1623 L193 1622 L197 1622 L198 1621 L200 1621 L201 1620 L203 1620 L204 1619 L206 1619 L207 1618 L209 1618 L210 1617 L211 1617 L212 1616 L213 1616 L214 1615 L215 1615 L216 1614 L217 1614 L219 1612 L220 1612 L222 1610 L223 1610 L227 1606 L228 1606 L236 1598 L236 1597 L240 1593 L240 1592 L242 1590 L242 1589 L243 1588 L243 1587 L245 1585 L245 1584 L246 1583 L246 1582 L247 1581 L247 1579 L248 1578 L248 1577 L249 1576 L249 1574 L250 1573 L250 1571 L251 1570 L251 1567 L252 1566 L252 1562 L253 1561 L253 1548 L254 1547 L254 1509 L255 1508 L255 1465 L256 1464 L256 1408 L257 1407 L257 1343 L258 1342 L258 1338 L259 1337 L259 1332 L260 1331 L260 1327 L261 1326 L261 1325 L262 1324 L262 1323 L265 1320 L266 1320 L267 1319 L269 1319 L270 1318 L273 1318 L274 1319 L276 1319 L277 1320 L278 1320 L280 1322 L281 1322 L288 1329 L288 1330 L289 1331 L289 1332 L290 1333 L290 1334 L291 1335 L291 1336 L292 1337 L292 1339 L293 1340 L293 1414 L294 1415 L293 1416 L293 1425 L294 1426 L294 1562 L295 1563 L295 1645 L296 1646 L296 1710 L297 1711 L296 1712 L297 1713 L297 1767 L298 1768 L298 1813 L299 1814 L299 1858 L300 1859 L300 1896 L301 1897 L301 1910 L302 1911 L302 1914 L303 1915 L303 1918 L304 1919 L304 1920 L305 1921 L305 1923 L306 1924 L306 1926 L307 1927 L307 1928 L308 1929 L308 1931 L309 1932 L309 1933 L310 1934 L310 1935 L311 1936 L311 1937 L312 1938 L312 1939 L313 1940 L313 1941 L314 1942 L314 1943 L315 1944 L315 1945 L316 1946 L316 1947 L317 1948 L317 1949 L319 1951 L319 1952 L321 1954 L321 1955 L323 1957 L323 1958 L326 1961 L326 1962 L330 1966 L330 1967 L346 1983 L347 1983 L351 1987 L352 1987 L355 1990 L356 1990 L358 1992 L359 1992 L361 1994 L362 1994 L363 1995 L364 1995 L366 1997 L367 1997 L368 1998 L369 1998 L370 1999 L371 1999 L372 2000 L373 2000 L374 2001 L375 2001 L376 2002 L377 2002 L378 2003 L379 2003 L380 2004 L381 2004 L382 2005 L383 2005 L384 2006 L386 2006 L387 2007 L388 2007 L389 2008 L391 2008 L392 2009 L395 2009 L396 2010 L398 2010 L399 2011 L402 2011 L403 2012 L406 2012 L407 2013 L411 2013 L412 2014 L418 2014 L419 2015 L433 2015 L434 2016 L439 2016 L440 2015 L453 2015 L454 2014 L459 2014 L460 2013 L465 2013 L466 2012 L469 2012 L470 2011 L473 2011 L474 2010 L477 2010 L478 2009 L480 2009 L481 2008 L483 2008 L484 2007 L485 2007 L486 2006 L488 2006 L489 2005 L490 2005 L491 2004 L492 2004 L493 2003 L494 2003 L495 2002 L497 2002 L498 2001 L499 2001 L500 2000 L501 2000 L503 1998 L504 1998 L505 1997 L506 1997 L508 1995 L509 1995 L510 1994 L511 1994 L513 1992 L514 1992 L516 1990 L517 1990 L520 1987 L521 1987 L525 1983 L526 1983 L542 1967 L542 1966 L547 1961 L547 1960 L549 1958 L549 1957 L551 1955 L551 1954 L553 1952 L553 1951 L555 1949 L555 1948 L556 1947 L556 1946 L557 1945 L557 1944 L558 1943 L558 1942 L559 1941 L559 1940 L561 1938 L561 1936 L562 1935 L562 1934 L563 1933 L563 1932 L564 1931 L564 1930 L565 1929 L565 1927 L566 1926 L566 1924 L567 1923 L567 1922 L568 1921 L568 1919 L569 1918 L569 1915 L570 1914 L570 1912 L571 1911 L571 1907 L572 1906 L572 1902 L573 1901 L573 1895 L574 1894 L574 1883 L575 1882 L575 1872 L574 1871 L574 1860 L573 1859 L573 1593 L574 1592 L574 1547 L573 1546 L573 1529 L574 1528 L574 1507 L575 1506 L575 1495 L576 1494 L576 1486 L577 1485 L577 1483 L578 1482 L578 1480 L579 1479 L579 1478 L580 1477 L580 1476 L586 1470 L587 1470 L588 1469 L589 1469 L590 1468 L592 1468 L593 1467 L619 1467 L620 1468 L627 1468 L628 1469 L632 1469 L633 1470 L636 1470 L637 1471 L645 1471 L646 1472 L655 1472 L656 1473 L666 1473 L667 1474 L678 1474 L679 1475 L693 1475 L694 1476 L711 1476 L712 1477 L744 1477 L745 1478 L781 1478 L782 1477 L807 1477 L808 1476 L821 1476 L822 1475 L843 1475 L844 1474 L855 1474 L856 1475 L864 1475 L865 1476 L866 1476 L869 1479 L869 1480 L870 1481 L870 1482 L871 1483 L871 1484 L872 1485 L872 1489 L873 1490 L873 1674 L874 1675 L874 1677 L873 1678 L873 1680 L874 1681 L874 1766 L875 1767 L874 1768 L874 1769 L875 1770 L875 1771 L874 1772 L875 1773 L875 1842 L876 1843 L876 1911 L877 1912 L876 1913 L877 1914 L877 1957 L878 1958 L878 1963 L879 1964 L879 1968 L880 1969 L880 1972 L881 1973 L881 1975 L882 1976 L882 1978 L883 1979 L883 1981 L884 1982 L884 1984 L885 1985 L885 1986 L886 1987 L886 1988 L887 1989 L887 1990 L888 1991 L888 1992 L889 1993 L889 1994 L891 1996 L891 1997 L892 1998 L892 1999 L894 2001 L894 2002 L896 2004 L896 2005 L900 2009 L900 2010 L913 2023 L914 2023 L917 2026 L918 2026 L920 2028 L921 2028 L923 2030 L924 2030 L926 2032 L927 2032 L928 2033 L929 2033 L930 2034 L931 2034 L932 2035 L933 2035 L934 2036 L935 2036 L936 2037 L937 2037 L938 2038 L940 2038 L941 2039 L943 2039 L944 2040 L945 2040 L946 2041 L949 2041 L950 2042 L952 2042 L953 2043 L956 2043 L957 2044 L962 2044 L963 2045 L975 2045 L976 2046 L978 2046 L979 2045 L1005 2045 L1006 2046 L1032 2046 L1033 2045 L1036 2045 L1037 2044 L1039 2044 L1040 2043 L1041 2043 L1042 2042 L1044 2042 L1045 2041 L1046 2041 L1047 2040 L1048 2040 L1049 2039 L1050 2039 L1052 2037 L1053 2037 L1054 2036 L1055 2036 L1058 2033 L1059 2033 L1071 2021 L1071 2020 L1074 2017 L1074 2016 L1076 2014 L1076 2013 L1077 2012 L1077 2011 L1079 2009 L1079 2008 L1080 2007 L1080 2006 L1081 2005 L1081 2004 L1082 2003 L1082 2002 L1083 2001 L1083 2000 L1084 1999 L1084 1998 L1085 1997 L1085 1996 L1086 1995 L1086 1994 L1087 1993 L1087 1991 L1088 1990 L1088 1989 L1089 1988 L1089 1986 L1090 1985 L1090 1984 L1091 1983 L1091 1981 L1092 1980 L1092 1977 L1093 1976 L1093 1974 L1094 1973 L1094 1970 L1095 1969 L1095 1966 L1096 1965 L1096 1960 L1097 1959 L1097 1954 L1098 1953 L1098 1886 L1099 1885 L1099 1771 L1100 1770 L1100 1768 L1099 1767 L1100 1766 L1099 1765 L1100 1764 L1099 1763 L1100 1762 L1099 1761 L1100 1760 L1100 1681 L1099 1680 L1100 1679 L1099 1678 L1100 1677 L1099 1676 L1100 1675 L1099 1674 L1100 1673 L1100 1663 L1099 1662 L1099 1498 L1100 1497 L1100 1442 L1101 1441 L1101 1406 L1102 1405 L1102 1400 L1103 1399 L1103 1397 L1104 1396 L1104 1395 L1105 1394 L1105 1392 L1107 1390 L1107 1389 L1116 1380 L1117 1380 L1118 1379 L1119 1379 L1120 1378 L1126 1378 L1127 1379 L1128 1379 L1129 1380 L1130 1380 L1134 1384 L1134 1385 L1135 1386 L1135 1388 L1136 1389 L1136 1391 L1137 1392 L1137 1397 L1138 1398 L1138 1579 L1139 1580 L1139 1635 L1140 1636 L1140 1660 L1141 1661 L1141 1665 L1142 1666 L1142 1669 L1143 1670 L1143 1672 L1144 1673 L1144 1675 L1145 1676 L1145 1677 L1146 1678 L1146 1679 L1147 1680 L1147 1681 L1148 1682 L1148 1683 L1150 1685 L1150 1686 L1152 1688 L1152 1689 L1164 1701 L1165 1701 L1167 1703 L1168 1703 L1170 1705 L1171 1705 L1172 1706 L1173 1706 L1174 1707 L1175 1707 L1176 1708 L1178 1708 L1179 1709 L1180 1709 L1181 1710 L1183 1710 L1184 1711 L1188 1711 L1189 1712 L1194 1712 L1195 1713 L1208 1713 L1209 1712 L1215 1712 L1216 1711 L1218 1711 L1219 1710 L1221 1710 L1222 1709 L1224 1709 L1225 1708 L1227 1708 L1228 1707 L1229 1707 L1230 1706 L1231 1706 L1233 1704 L1234 1704 L1235 1703 L1236 1703 L1239 1700 L1240 1700 L1250 1690 L1250 1689 L1252 1687 L1252 1686 L1254 1684 L1254 1683 L1255 1682 L1255 1681 L1256 1680 L1256 1679 L1257 1678 L1257 1677 L1258 1676 L1258 1675 L1259 1674 L1259 1672 L1260 1671 L1260 1670 L1261 1669 L1261 1666 L1262 1665 L1262 1660 L1263 1659 L1263 1612 L1264 1611 L1264 1517 L1265 1516 L1265 1405 L1266 1404 L1266 1282 L1267 1281 L1267 1277 L1268 1276 L1268 1272 L1269 1271 L1269 1269 L1270 1268 L1270 1266 L1271 1265 L1271 1263 L1272 1262 L1272 1261 L1273 1260 L1273 1259 L1274 1258 L1274 1257 L1275 1256 L1275 1255 L1276 1254 L1276 1253 L1277 1252 L1277 1251 L1280 1248 L1280 1247 L1291 1236 L1291 1235 L1298 1228 L1298 1227 L1305 1220 L1305 1219 L1310 1214 L1310 1213 L1314 1209 L1314 1208 L1318 1204 L1318 1203 L1322 1199 L1322 1198 L1326 1194 L1326 1193 L1329 1190 L1329 1189 L1333 1185 L1333 1184 L1335 1182 L1335 1181 L1338 1178 L1338 1177 L1340 1175 L1340 1174 L1343 1171 L1343 1170 L1346 1167 L1346 1166 L1348 1164 L1348 1163 L1351 1160 L1351 1159 L1353 1157 L1353 1156 L1355 1154 L1355 1153 L1357 1151 L1357 1150 L1358 1149 L1358 1148 L1360 1146 L1360 1145 L1362 1143 L1362 1142 L1364 1140 L1364 1139 L1366 1137 L1366 1136 L1368 1134 L1368 1133 L1369 1132 L1369 1131 L1371 1129 L1371 1128 L1372 1127 L1372 1126 L1374 1124 L1374 1123 L1376 1121 L1376 1120 L1377 1119 L1377 1118 L1379 1116 L1379 1115 L1380 1114 L1380 1113 L1381 1112 L1381 1111 L1382 1110 L1382 1109 L1384 1107 L1384 1106 L1385 1105 L1385 1104 L1386 1103 L1386 1102 L1387 1101 L1387 1100 L1389 1098 L1389 1097 L1390 1096 L1390 1095 L1391 1094 L1391 1093 L1393 1091 L1393 1090 L1394 1089 L1394 1088 L1395 1087 L1395 1086 L1396 1085 L1396 1084 L1397 1083 L1397 1082 L1398 1081 L1398 1080 L1399 1079 L1399 1078 L1400 1077 L1400 1076 L1401 1075 L1401 1074 L1402 1073 L1402 1072 L1403 1071 L1403 1070 L1404 1069 L1404 1068 L1405 1067 L1405 1066 L1406 1065 L1406 1064 L1407 1063 L1407 1062 L1408 1061 L1408 1060 L1409 1059 L1409 1058 L1410 1057 L1410 1056 L1411 1055 L1411 1053 L1412 1052 L1412 1051 L1413 1050 L1413 1049 L1414 1048 L1414 1047 L1415 1046 L1415 1045 L1416 1044 L1416 1043 L1417 1042 L1417 1041 L1418 1040 L1418 1038 L1419 1037 L1419 1036 L1420 1035 L1420 1034 L1421 1033 L1421 1031 L1422 1030 L1422 1029 L1423 1028 L1423 1026 L1424 1025 L1424 1024 L1425 1023 L1425 1021 L1426 1020 L1426 1019 L1427 1018 L1427 1016 L1428 1015 L1428 1014 L1429 1013 L1429 1011 L1430 1010 L1430 1009 L1431 1008 L1431 1006 L1432 1005 L1432 1004 L1433 1003 L1433 1001 L1434 1000 L1434 998 L1435 997 L1435 996 L1436 995 L1436 993 L1437 992 L1437 990 L1438 989 L1438 988 L1439 987 L1439 985 L1440 984 L1440 982 L1441 981 L1441 979 L1442 978 L1442 976 L1443 975 L1443 973 L1444 972 L1444 970 L1445 969 L1445 966 L1446 965 L1446 963 L1447 962 L1447 960 L1448 959 L1448 957 L1449 956 L1449 953 L1450 952 L1450 950 L1451 949 L1451 947 L1452 946 L1452 943 L1453 942 L1453 940 L1454 939 L1454 936 L1455 935 L1455 932 L1456 931 L1456 929 L1457 928 L1457 925 L1458 924 L1458 921 L1459 920 L1459 917 L1460 916 L1460 913 L1461 912 L1461 909 L1462 908 L1462 904 L1463 903 L1463 900 L1464 899 L1464 895 L1465 894 L1465 891 L1466 890 L1466 885 L1467 884 L1467 880 L1468 879 L1468 875 L1469 874 L1469 869 L1470 868 L1470 863 L1471 862 L1471 857 L1472 856 L1472 850 L1473 849 L1473 843 L1474 842 L1474 836 L1475 835 L1475 828 L1476 827 L1476 819 L1477 818 L1477 810 L1478 809 L1478 798 L1479 797 L1479 783 L1480 782 L1480 699 L1479 698 L1479 684 L1478 683 L1478 672 L1477 671 L1477 662 L1476 661 L1476 654 L1475 653 L1475 646 L1474 645 L1474 638 L1473 637 L1473 632 L1472 631 L1472 625 L1471 624 L1471 619 L1470 618 L1470 613 L1469 612 L1469 607 L1468 606 L1468 602 L1467 601 L1467 596 L1466 595 L1466 592 L1465 591 L1465 586 L1464 585 L1464 582 L1463 581 L1463 577 L1462 576 L1462 573 L1461 572 L1461 569 L1460 568 L1460 565 L1459 564 L1459 561 L1458 560 L1458 557 L1457 556 L1457 553 L1456 552 L1456 549 L1455 548 L1455 546 L1454 545 L1454 542 L1453 541 L1453 539 L1452 538 L1452 535 L1451 534 L1451 532 L1450 531 L1450 529 L1449 528 L1449 525 L1448 524 L1448 522 L1447 521 L1447 519 L1446 518 L1446 515 L1445 514 L1445 512 L1444 511 L1444 509 L1443 508 L1443 506 L1442 505 L1442 503 L1441 502 L1441 500 L1440 499 L1440 497 L1439 496 L1439 494 L1438 493 L1438 492 L1437 491 L1437 489 L1436 488 L1436 486 L1435 485 L1435 484 L1434 483 L1434 481 L1433 480 L1433 478 L1432 477 L1432 476 L1431 475 L1431 473 L1430 472 L1430 470 L1429 469 L1429 468 L1428 467 L1428 466 L1427 465 L1427 463 L1426 462 L1426 461 L1425 460 L1425 458 L1424 457 L1424 455 L1423 454 L1423 453 L1422 452 L1422 451 L1421 450 L1421 448 L1420 447 L1420 446 L1419 445 L1419 444 L1418 443 L1418 441 L1417 440 L1417 439 L1416 438 L1416 437 L1415 436 L1415 435 L1414 434 L1414 433 L1413 432 L1413 430 L1412 429 L1412 428 L1411 427 L1411 426 L1410 425 L1410 424 L1409 423 L1409 422 L1408 421 L1408 420 L1407 419 L1407 418 L1406 417 L1406 416 L1405 415 L1405 414 L1404 413 L1404 412 L1403 411 L1403 410 L1402 409 L1402 408 L1401 407 L1401 406 L1400 405 L1400 404 L1399 403 L1399 402 L1398 401 L1398 400 L1397 399 L1397 398 L1396 397 L1396 396 L1395 395 L1395 394 L1394 393 L1394 392 L1393 391 L1393 390 L1391 388 L1391 387 L1390 386 L1390 385 L1389 384 L1389 383 L1388 382 L1388 381 L1387 380 L1387 379 L1385 377 L1385 376 L1384 375 L1384 374 L1383 373 L1383 372 L1381 370 L1381 369 L1380 368 L1380 367 L1379 366 L1379 365 L1377 363 L1377 362 L1376 361 L1376 360 L1374 358 L1374 357 L1373 356 L1373 355 L1371 353 L1371 352 L1369 350 L1369 349 L1368 348 L1368 347 L1366 345 L1366 344 L1364 342 L1364 341 L1363 340 L1363 339 L1361 337 L1361 336 L1359 334 L1359 333 L1357 331 L1357 330 L1355 328 L1355 327 L1353 325 L1353 324 L1351 322 L1351 321 L1349 319 L1349 318 L1346 315 L1346 314 L1343 311 L1343 310 L1341 308 L1341 307 L1339 305 L1339 304 L1336 301 L1336 300 L1333 297 L1333 296 L1330 293 L1330 292 L1327 289 L1327 288 L1323 284 L1323 283 L1319 279 L1319 278 L1315 274 L1315 273 L1311 269 L1311 268 L1305 262 L1305 261 L1299 255 L1299 254 L1291 246 L1291 245 L1283 237 L1283 236 L1244 197 L1243 197 L1235 189 L1234 189 L1226 181 L1225 181 L1220 176 L1219 176 L1213 170 L1212 170 L1208 166 L1207 166 L1203 162 L1202 162 L1198 158 L1197 158 L1193 154 L1192 154 L1189 151 L1188 151 L1185 148 L1184 148 L1181 145 L1180 145 L1177 142 L1176 142 L1174 140 L1173 140 L1171 138 L1170 138 L1167 135 L1166 135 L1163 132 L1162 132 L1160 130 L1159 130 L1157 128 L1156 128 L1154 126 L1153 126 L1151 124 L1150 124 L1148 122 L1147 122 L1145 120 L1144 120 L1142 118 L1141 118 L1140 117 L1139 117 L1137 115 L1136 115 L1134 113 L1133 113 L1131 111 L1130 111 L1129 110 L1128 110 L1126 108 L1125 108 L1124 107 L1123 107 L1121 105 L1120 105 L1119 104 L1118 104 L1116 102 L1115 102 L1114 101 L1113 101 L1111 99 L1110 99 L1109 98 L1108 98 L1107 97 L1106 97 L1105 96 L1104 96 L1102 94 L1101 94 L1100 93 L1099 93 L1098 92 L1097 92 L1096 91 L1095 91 L1093 89 L1092 89 L1091 88 L1090 88 L1089 87 L1088 87 L1087 86 L1086 86 L1085 85 L1084 85 L1083 84 L1082 84 L1080 82 L1079 82 L1078 81 L1076 81 L1075 80 L1074 80 L1072 78 L1070 78 L1069 77 L1068 77 L1067 76 L1066 76 L1065 75 L1064 75 L1063 74 L1062 74 L1061 73 L1060 73 L1059 72 L1058 72 L1057 71 L1056 71 L1055 70 L1054 70 L1053 69 L1052 69 L1051 68 L1050 68 L1049 67 L1048 67 L1047 66 L1045 66 L1044 65 L1043 65 L1042 64 L1041 64 L1040 63 L1039 63 L1038 62 L1036 62 L1035 61 L1034 61 L1033 60 L1032 60 L1031 59 L1029 59 L1028 58 L1027 58 L1026 57 L1024 57 L1023 56 L1022 56 L1021 55 L1019 55 L1018 54 L1017 54 L1016 53 L1014 53 L1013 52 L1012 52 L1011 51 L1009 51 L1008 50 L1007 50 L1006 49 L1004 49 L1003 48 L1001 48 L1000 47 L999 47 L998 46 L996 46 L995 45 L993 45 L992 44 L991 44 L990 43 L988 43 L987 42 L985 42 L984 41 L982 41 L981 40 L980 40 L979 39 L976 39 L975 38 L974 38 L973 37 L970 37 L969 36 L967 36 L966 35 L964 35 L963 34 L961 34 L960 33 L957 33 L956 32 L954 32 L953 31 L951 31 L950 30 L947 30 L946 29 L944 29 L943 28 L940 28 L939 27 L937 27 L936 26 L933 26 L932 25 L929 25 L928 24 L926 24 L925 23 L922 23 L921 22 L918 22 L917 21 L914 21 L913 20 L910 20 L909 19 L905 19 L904 18 L901 18 L900 17 L896 17 L895 16 L891 16 L890 15 L886 15 L885 14 L881 14 L880 13 L876 13 L875 12 L870 12 L869 11 L864 11 L863 10 L858 10 L857 9 L851 9 L850 8 L844 8 L843 7 L837 7 L836 6 L829 6 L828 5 L820 5 L819 4 L811 4 L810 3 L800 3 L799 2 L785 2 L784 1 L764 1 L763 0 Z" fill="#000000" stroke="#e5eef7" stroke-width="7" style="cursor: pointer;" stroke-linejoin="round" stroke-linecap="round"/></g>
      <g id="region-face"><path data-region="face" d="M541 197 L542 196 L581 196 L582 197 L599 197 L600 198 L609 198 L610 199 L618 199 L619 200 L626 200 L627 201 L633 201 L634 202 L639 202 L640 203 L646 203 L647 204 L652 204 L653 205 L657 205 L658 206 L662 206 L663 207 L667 207 L668 208 L671 208 L672 209 L675 209 L676 210 L679 210 L680 211 L683 211 L684 212 L687 212 L688 213 L690 213 L691 214 L694 214 L695 215 L697 215 L698 216 L700 216 L701 217 L704 217 L705 218 L707 218 L708 219 L710 219 L711 220 L713 220 L714 221 L716 221 L717 222 L719 222 L720 223 L722 223 L723 224 L725 224 L726 225 L728 225 L729 226 L731 226 L732 227 L733 227 L734 228 L736 228 L737 229 L738 229 L739 230 L741 230 L742 231 L744 231 L745 232 L746 232 L747 233 L748 233 L749 234 L751 234 L752 235 L753 235 L754 236 L755 236 L756 237 L757 237 L758 238 L760 238 L761 239 L762 239 L763 240 L764 240 L765 241 L766 241 L767 242 L768 242 L769 243 L770 243 L771 244 L773 244 L774 245 L775 245 L776 246 L777 246 L778 247 L779 247 L780 248 L781 248 L782 249 L783 249 L784 250 L785 250 L786 251 L787 251 L788 252 L789 252 L790 253 L791 253 L793 255 L794 255 L795 256 L796 256 L797 257 L798 257 L799 258 L800 258 L802 260 L803 260 L804 261 L805 261 L806 262 L807 262 L809 264 L810 264 L811 265 L812 265 L814 267 L815 267 L816 268 L817 268 L819 270 L820 270 L821 271 L822 271 L824 273 L825 273 L827 275 L828 275 L830 277 L831 277 L833 279 L834 279 L836 281 L837 281 L840 284 L841 284 L843 286 L844 286 L847 289 L848 289 L850 291 L851 291 L854 294 L855 294 L858 297 L859 297 L863 301 L864 301 L869 306 L870 306 L874 310 L875 310 L880 315 L881 315 L890 324 L891 324 L892 325 L892 326 L893 326 L919 352 L919 353 L929 363 L929 364 L933 368 L933 369 L939 375 L939 376 L943 380 L943 381 L947 385 L947 386 L950 389 L950 390 L952 392 L952 393 L955 396 L955 397 L958 400 L958 401 L960 403 L960 404 L963 407 L963 408 L965 410 L965 411 L967 413 L967 414 L969 416 L969 417 L971 419 L971 420 L972 421 L972 422 L974 424 L974 425 L976 427 L976 428 L977 429 L977 430 L979 432 L979 433 L980 434 L980 435 L982 437 L982 438 L983 439 L983 440 L985 442 L985 443 L986 444 L986 445 L987 446 L987 447 L988 448 L988 449 L990 451 L990 452 L991 453 L991 454 L992 455 L992 456 L993 457 L993 458 L994 459 L994 460 L995 461 L995 462 L996 463 L996 464 L997 465 L997 466 L998 467 L998 468 L999 469 L999 470 L1000 471 L1000 472 L1001 473 L1001 474 L1002 475 L1002 476 L1003 477 L1003 478 L1004 479 L1004 481 L1005 482 L1005 483 L1006 484 L1006 485 L1007 486 L1007 487 L1008 488 L1008 489 L1009 490 L1009 492 L1010 493 L1010 494 L1011 495 L1011 497 L1012 498 L1012 499 L1013 500 L1013 501 L1014 502 L1014 504 L1015 505 L1015 507 L1016 508 L1016 509 L1017 510 L1017 512 L1018 513 L1018 515 L1019 516 L1019 518 L1020 519 L1020 521 L1021 522 L1021 523 L1022 524 L1022 526 L1023 527 L1023 529 L1024 530 L1024 532 L1025 533 L1025 535 L1026 536 L1026 538 L1027 539 L1027 541 L1028 542 L1028 545 L1029 546 L1029 548 L1030 549 L1030 552 L1031 553 L1031 555 L1032 556 L1032 559 L1033 560 L1033 563 L1034 564 L1034 567 L1035 568 L1035 571 L1036 572 L1036 576 L1037 577 L1037 581 L1038 582 L1038 585 L1039 586 L1039 591 L1040 592 L1040 596 L1041 597 L1041 602 L1042 603 L1042 608 L1043 609 L1043 615 L1044 616 L1044 622 L1045 623 L1045 631 L1046 632 L1046 641 L1047 642 L1047 655 L1048 656 L1048 709 L1047 710 L1047 723 L1046 724 L1046 733 L1045 734 L1045 742 L1044 743 L1044 749 L1043 750 L1043 756 L1042 757 L1042 762 L1041 763 L1041 768 L1040 769 L1040 773 L1039 774 L1039 778 L1038 779 L1038 783 L1037 784 L1037 788 L1036 789 L1036 793 L1035 794 L1035 797 L1034 798 L1034 801 L1033 802 L1033 805 L1032 806 L1032 808 L1031 809 L1031 812 L1030 813 L1030 816 L1029 817 L1029 819 L1028 820 L1028 822 L1027 823 L1027 825 L1026 826 L1026 828 L1025 829 L1025 831 L1024 832 L1024 835 L1023 836 L1023 837 L1022 838 L1022 840 L1021 841 L1021 843 L1020 844 L1020 846 L1019 847 L1019 849 L1018 850 L1018 851 L1017 852 L1017 854 L1016 855 L1016 857 L1015 858 L1015 860 L1014 861 L1014 862 L1013 863 L1013 865 L1012 866 L1012 867 L1011 868 L1011 870 L1010 871 L1010 872 L1009 873 L1009 874 L1008 875 L1008 876 L1007 877 L1007 879 L1006 880 L1006 881 L1005 882 L1005 883 L1004 884 L1004 885 L1003 886 L1003 887 L1002 888 L1002 889 L1001 890 L1001 892 L1000 893 L1000 894 L999 895 L999 896 L998 897 L998 898 L997 899 L997 900 L996 901 L996 902 L995 903 L995 904 L994 905 L994 906 L993 907 L993 908 L992 909 L992 910 L991 911 L991 912 L989 914 L989 915 L988 916 L988 917 L987 918 L987 919 L986 920 L986 921 L984 923 L984 924 L983 925 L983 926 L981 928 L981 929 L980 930 L980 931 L979 932 L979 933 L977 935 L977 936 L975 938 L975 939 L974 940 L974 941 L972 943 L972 944 L971 945 L971 946 L969 948 L969 949 L967 951 L967 952 L965 954 L965 955 L963 957 L963 958 L960 961 L960 962 L958 964 L958 965 L955 968 L955 969 L952 972 L952 973 L950 975 L950 976 L946 980 L946 981 L943 984 L943 985 L939 989 L939 990 L934 995 L934 996 L928 1002 L928 1003 L919 1012 L919 1013 L894 1038 L893 1038 L893 1039 L892 1040 L891 1040 L882 1049 L881 1049 L875 1055 L874 1055 L870 1059 L869 1059 L865 1063 L864 1063 L860 1067 L859 1067 L856 1070 L855 1070 L851 1074 L850 1074 L848 1076 L847 1076 L844 1079 L843 1079 L841 1081 L840 1081 L838 1083 L837 1083 L835 1085 L834 1085 L832 1087 L831 1087 L829 1089 L828 1089 L826 1091 L825 1091 L823 1093 L822 1093 L820 1095 L819 1095 L818 1096 L817 1096 L815 1098 L814 1098 L813 1099 L812 1099 L810 1101 L809 1101 L808 1102 L807 1102 L805 1104 L804 1104 L803 1105 L802 1105 L801 1106 L800 1106 L799 1107 L798 1107 L796 1109 L795 1109 L794 1110 L793 1110 L792 1111 L791 1111 L790 1112 L789 1112 L788 1113 L787 1113 L785 1115 L784 1115 L783 1116 L782 1116 L781 1117 L780 1117 L779 1118 L778 1118 L777 1119 L776 1119 L775 1120 L774 1120 L773 1121 L772 1121 L771 1122 L769 1122 L768 1123 L767 1123 L766 1124 L765 1124 L764 1125 L763 1125 L762 1126 L760 1126 L759 1127 L758 1127 L757 1128 L756 1128 L755 1129 L753 1129 L752 1130 L751 1130 L750 1131 L749 1131 L748 1132 L746 1132 L745 1133 L744 1133 L743 1134 L742 1134 L741 1135 L739 1135 L738 1136 L736 1136 L735 1137 L734 1137 L733 1138 L731 1138 L730 1139 L729 1139 L728 1140 L726 1140 L725 1141 L723 1141 L722 1142 L720 1142 L719 1143 L717 1143 L716 1144 L714 1144 L713 1145 L711 1145 L710 1146 L708 1146 L707 1147 L704 1147 L703 1148 L701 1148 L700 1149 L697 1149 L696 1150 L694 1150 L693 1151 L690 1151 L689 1152 L687 1152 L686 1153 L683 1153 L682 1154 L679 1154 L678 1155 L675 1155 L674 1156 L671 1156 L670 1157 L667 1157 L666 1158 L662 1158 L661 1159 L657 1159 L656 1160 L652 1160 L651 1161 L647 1161 L646 1162 L641 1162 L640 1163 L634 1163 L633 1164 L627 1164 L626 1165 L619 1165 L618 1166 L610 1166 L609 1167 L598 1167 L597 1168 L578 1168 L577 1169 L545 1169 L544 1168 L526 1168 L525 1167 L514 1167 L513 1166 L505 1166 L504 1165 L497 1165 L496 1164 L490 1164 L489 1163 L483 1163 L482 1162 L478 1162 L477 1161 L472 1161 L471 1160 L467 1160 L466 1159 L462 1159 L461 1158 L458 1158 L457 1157 L454 1157 L453 1156 L449 1156 L448 1155 L445 1155 L444 1154 L442 1154 L441 1153 L438 1153 L437 1152 L434 1152 L433 1151 L430 1151 L429 1150 L427 1150 L426 1149 L424 1149 L423 1148 L420 1148 L419 1147 L417 1147 L416 1146 L414 1146 L413 1145 L411 1145 L410 1144 L407 1144 L406 1143 L404 1143 L403 1142 L402 1142 L401 1141 L399 1141 L398 1140 L396 1140 L395 1139 L393 1139 L392 1138 L391 1138 L390 1137 L388 1137 L387 1136 L386 1136 L385 1135 L383 1135 L382 1134 L381 1134 L380 1133 L378 1133 L377 1132 L376 1132 L375 1131 L374 1131 L373 1130 L371 1130 L370 1129 L369 1129 L368 1128 L367 1128 L366 1127 L364 1127 L363 1126 L362 1126 L361 1125 L360 1125 L359 1124 L358 1124 L357 1123 L356 1123 L355 1122 L353 1122 L352 1121 L351 1121 L350 1120 L349 1120 L348 1119 L347 1119 L346 1118 L345 1118 L344 1117 L343 1117 L342 1116 L341 1116 L340 1115 L339 1115 L338 1114 L337 1114 L335 1112 L334 1112 L333 1111 L332 1111 L331 1110 L330 1110 L329 1109 L328 1109 L327 1108 L326 1108 L324 1106 L323 1106 L322 1105 L321 1105 L320 1104 L319 1104 L318 1103 L317 1103 L315 1101 L314 1101 L313 1100 L312 1100 L310 1098 L309 1098 L308 1097 L307 1097 L305 1095 L304 1095 L303 1094 L302 1094 L300 1092 L299 1092 L297 1090 L296 1090 L294 1088 L293 1088 L291 1086 L290 1086 L287 1083 L286 1083 L284 1081 L283 1081 L281 1079 L280 1079 L278 1077 L277 1077 L274 1074 L273 1074 L270 1071 L269 1071 L265 1067 L264 1067 L261 1064 L260 1064 L256 1060 L255 1060 L251 1056 L250 1056 L243 1049 L242 1049 L235 1042 L234 1042 L202 1010 L202 1009 L195 1002 L195 1001 L188 994 L188 993 L183 988 L183 987 L180 984 L180 983 L177 980 L177 979 L174 976 L174 975 L171 972 L171 971 L167 967 L167 966 L165 964 L165 963 L163 961 L163 960 L161 958 L161 957 L159 955 L159 954 L157 952 L157 951 L155 949 L155 948 L153 946 L153 945 L151 943 L151 942 L149 940 L149 939 L148 938 L148 937 L146 935 L146 934 L144 932 L144 931 L143 930 L143 929 L142 928 L142 927 L140 925 L140 924 L139 923 L139 922 L138 921 L138 920 L137 919 L137 918 L135 916 L135 915 L134 914 L134 913 L133 912 L133 911 L132 910 L132 909 L131 908 L131 907 L130 906 L130 905 L129 904 L129 903 L128 902 L128 901 L126 899 L126 898 L125 897 L125 896 L124 895 L124 894 L123 893 L123 891 L122 890 L122 889 L121 888 L121 887 L120 886 L120 885 L119 884 L119 883 L118 882 L118 881 L117 880 L117 878 L116 877 L116 876 L115 875 L115 873 L114 872 L114 871 L113 870 L113 869 L112 868 L112 866 L111 865 L111 864 L110 863 L110 861 L109 860 L109 859 L108 858 L108 856 L107 855 L107 853 L106 852 L106 851 L105 850 L105 848 L104 847 L104 845 L103 844 L103 843 L102 842 L102 840 L101 839 L101 837 L100 836 L100 834 L99 833 L99 831 L98 830 L98 828 L97 827 L97 824 L96 823 L96 821 L95 820 L95 817 L94 816 L94 813 L93 812 L93 810 L92 809 L92 806 L91 805 L91 802 L90 801 L90 798 L89 797 L89 794 L88 793 L88 790 L87 789 L87 785 L86 784 L86 781 L85 780 L85 776 L84 775 L84 771 L83 770 L83 765 L82 764 L82 759 L81 758 L81 753 L80 752 L80 746 L79 745 L79 738 L78 737 L78 728 L77 727 L77 716 L76 715 L76 693 L75 692 L75 671 L76 670 L76 650 L77 649 L77 637 L78 636 L78 628 L79 627 L79 620 L80 619 L80 613 L81 612 L81 606 L82 605 L82 600 L83 599 L83 595 L84 594 L84 590 L85 589 L85 585 L86 584 L86 580 L87 579 L87 576 L88 575 L88 572 L89 571 L89 568 L90 567 L90 564 L91 563 L91 560 L92 559 L92 556 L93 555 L93 552 L94 551 L94 549 L95 548 L95 545 L96 544 L96 542 L97 541 L97 538 L98 537 L98 535 L99 534 L99 532 L100 531 L100 529 L101 528 L101 526 L102 525 L102 523 L103 522 L103 520 L104 519 L104 518 L105 517 L105 515 L106 514 L106 512 L107 511 L107 510 L108 509 L108 507 L109 506 L109 505 L110 504 L110 502 L111 501 L111 500 L112 499 L112 497 L113 496 L113 495 L114 494 L114 492 L115 491 L115 490 L116 489 L116 488 L117 487 L117 485 L118 484 L118 483 L119 482 L119 481 L120 480 L120 479 L121 478 L121 476 L123 474 L123 472 L124 471 L124 470 L125 469 L125 468 L126 467 L126 466 L127 465 L127 464 L128 463 L128 462 L129 461 L129 460 L131 458 L131 457 L132 456 L132 455 L133 454 L133 453 L134 452 L134 451 L135 450 L135 449 L136 448 L136 447 L138 445 L138 444 L139 443 L139 442 L140 441 L140 440 L141 439 L141 438 L143 436 L143 435 L144 434 L144 433 L146 431 L146 430 L147 429 L147 428 L149 426 L149 425 L151 423 L151 422 L153 420 L153 419 L155 417 L155 416 L156 415 L156 414 L158 412 L158 411 L160 409 L160 408 L162 406 L162 405 L165 402 L165 401 L167 399 L167 398 L170 395 L170 394 L173 391 L173 390 L176 387 L176 386 L179 383 L179 382 L183 378 L183 377 L188 372 L188 371 L193 366 L193 365 L200 358 L200 357 L235 322 L236 322 L236 321 L237 320 L238 320 L244 314 L245 314 L250 309 L251 309 L256 304 L257 304 L261 300 L262 300 L265 297 L266 297 L270 293 L271 293 L273 291 L274 291 L277 288 L278 288 L280 286 L281 286 L284 283 L285 283 L287 281 L288 281 L290 279 L291 279 L293 277 L294 277 L296 275 L297 275 L299 273 L300 273 L302 271 L303 271 L304 270 L305 270 L307 268 L308 268 L309 267 L310 267 L312 265 L313 265 L314 264 L315 264 L317 262 L318 262 L319 261 L320 261 L322 259 L323 259 L324 258 L325 258 L326 257 L327 257 L329 255 L330 255 L331 254 L332 254 L333 253 L334 253 L335 252 L336 252 L337 251 L338 251 L339 250 L340 250 L341 249 L342 249 L343 248 L344 248 L345 247 L346 247 L347 246 L348 246 L349 245 L350 245 L351 244 L352 244 L353 243 L354 243 L355 242 L357 242 L358 241 L359 241 L360 240 L361 240 L362 239 L363 239 L364 238 L365 238 L366 237 L367 237 L368 236 L370 236 L371 235 L372 235 L373 234 L374 234 L375 233 L377 233 L378 232 L379 232 L380 231 L382 231 L383 230 L384 230 L385 229 L387 229 L388 228 L389 228 L390 227 L392 227 L393 226 L395 226 L396 225 L398 225 L399 224 L401 224 L402 223 L404 223 L405 222 L407 222 L408 221 L410 221 L411 220 L413 220 L414 219 L416 219 L417 218 L419 218 L420 217 L422 217 L423 216 L426 216 L427 215 L429 215 L430 214 L432 214 L433 213 L436 213 L437 212 L440 212 L441 211 L444 211 L445 210 L448 210 L449 209 L452 209 L453 208 L456 208 L457 207 L461 207 L462 206 L466 206 L467 205 L471 205 L472 204 L476 204 L477 203 L483 203 L484 202 L489 202 L490 201 L496 201 L497 200 L504 200 L505 199 L513 199 L514 198 L525 198 L526 197 Z" fill="#000000" stroke="#e5eef7" stroke-width="6" vector-effect="non-scaling-stroke" style="cursor: pointer;" stroke-linejoin="round" stroke-linecap="round"/></g>
      <g id="region-eyeL"><path data-region="eyeL" d="M318 405 L317 406 L313 406 L312 407 L310 407 L309 408 L307 408 L306 409 L304 409 L303 410 L302 410 L301 411 L299 411 L298 412 L297 412 L295 414 L294 414 L293 415 L292 415 L291 416 L290 416 L287 419 L286 419 L284 421 L283 421 L281 423 L280 423 L276 427 L275 427 L270 432 L269 432 L257 444 L257 445 L252 450 L252 451 L249 454 L249 455 L246 458 L246 459 L244 461 L244 462 L242 464 L242 465 L240 467 L240 468 L238 470 L238 471 L237 472 L237 473 L236 474 L236 475 L235 476 L235 477 L233 479 L233 480 L232 481 L232 482 L231 483 L231 485 L230 486 L230 487 L229 488 L229 489 L228 490 L228 492 L227 493 L227 494 L226 495 L226 497 L225 498 L225 499 L224 500 L224 502 L223 503 L223 505 L222 506 L222 509 L221 510 L221 512 L220 513 L220 516 L219 517 L219 520 L218 521 L218 525 L217 526 L217 531 L216 532 L216 540 L215 541 L215 563 L216 564 L216 572 L217 573 L217 578 L218 579 L218 582 L219 583 L219 586 L220 587 L220 589 L221 590 L221 593 L222 594 L222 595 L223 596 L223 598 L224 599 L224 601 L225 602 L225 603 L226 604 L226 605 L227 606 L227 608 L228 609 L228 610 L229 611 L229 612 L230 613 L230 614 L231 615 L231 616 L232 617 L232 618 L233 619 L233 620 L234 621 L234 622 L235 623 L235 624 L236 625 L236 626 L237 627 L237 628 L239 630 L239 631 L240 632 L240 633 L242 635 L242 636 L244 638 L244 639 L246 641 L246 642 L248 644 L248 645 L250 647 L250 648 L253 651 L253 652 L256 655 L256 656 L260 660 L260 661 L271 672 L271 673 L276 678 L277 678 L284 685 L285 685 L288 688 L289 688 L292 691 L293 691 L296 694 L297 694 L299 696 L300 696 L301 697 L302 697 L304 699 L305 699 L306 700 L307 700 L308 701 L309 701 L310 702 L311 702 L312 703 L314 703 L315 704 L316 704 L317 705 L319 705 L320 706 L322 706 L323 707 L326 707 L327 708 L332 708 L333 709 L345 709 L346 708 L348 708 L349 707 L351 707 L352 706 L353 706 L354 705 L355 705 L356 704 L357 704 L359 702 L360 702 L369 693 L369 692 L372 689 L372 688 L375 685 L375 684 L376 683 L376 682 L377 681 L377 680 L379 678 L379 677 L380 676 L380 675 L381 674 L381 673 L382 672 L382 670 L383 669 L383 668 L384 667 L384 666 L385 665 L385 663 L386 662 L386 661 L387 660 L387 658 L388 657 L388 655 L389 654 L389 653 L390 652 L390 650 L391 649 L391 646 L392 645 L392 643 L393 642 L393 639 L394 638 L394 636 L395 635 L395 632 L396 631 L396 627 L397 626 L397 622 L398 621 L398 617 L399 616 L399 610 L400 609 L400 603 L401 602 L401 595 L402 594 L402 584 L403 583 L403 570 L404 569 L404 527 L403 526 L403 514 L402 513 L402 505 L401 504 L401 498 L400 497 L400 492 L399 491 L399 486 L398 485 L398 482 L397 481 L397 478 L396 477 L396 474 L395 473 L395 471 L394 470 L394 468 L393 467 L393 465 L392 464 L392 462 L391 461 L391 460 L390 459 L390 457 L389 456 L389 455 L388 454 L388 453 L387 452 L387 450 L386 449 L386 448 L385 447 L385 446 L384 445 L384 444 L382 442 L382 441 L381 440 L381 439 L379 437 L379 436 L378 435 L378 434 L375 431 L375 430 L369 424 L369 423 L367 421 L366 421 L361 416 L360 416 L357 413 L356 413 L355 412 L354 412 L352 410 L351 410 L350 409 L348 409 L347 408 L346 408 L345 407 L342 407 L341 406 L338 406 L337 405 Z" fill="#000000" stroke="#e5eef7" stroke-width="6" vector-effect="non-scaling-stroke" style="cursor: pointer;" stroke-linejoin="round" stroke-linecap="round"/></g>
      <g id="region-eyeR"><path data-region="eyeR" d="M726 396 L725 397 L719 397 L718 398 L715 398 L714 399 L711 399 L710 400 L708 400 L707 401 L706 401 L705 402 L704 402 L703 403 L702 403 L701 404 L699 404 L697 406 L696 406 L695 407 L694 407 L693 408 L692 408 L690 410 L689 410 L687 412 L686 412 L682 416 L681 416 L677 420 L676 420 L668 428 L667 428 L663 432 L663 433 L654 442 L654 443 L650 447 L650 448 L647 451 L647 452 L644 455 L644 456 L643 457 L643 458 L640 461 L640 462 L639 463 L639 464 L637 466 L637 467 L635 469 L635 470 L634 471 L634 472 L633 473 L633 474 L631 476 L631 477 L630 478 L630 479 L629 480 L629 481 L628 482 L628 483 L627 484 L627 485 L626 486 L626 487 L625 488 L625 490 L624 491 L624 492 L623 493 L623 495 L622 496 L622 497 L621 498 L621 500 L620 501 L620 503 L619 504 L619 505 L618 506 L618 508 L617 509 L617 512 L616 513 L616 515 L615 516 L615 518 L614 519 L614 522 L613 523 L613 526 L612 527 L612 531 L611 532 L611 537 L610 538 L610 544 L609 545 L609 558 L608 559 L608 566 L609 567 L609 579 L610 580 L610 586 L611 587 L611 591 L612 592 L612 595 L613 596 L613 598 L614 599 L614 602 L615 603 L615 605 L616 606 L616 608 L617 609 L617 611 L618 612 L618 613 L619 614 L619 616 L620 617 L620 618 L621 619 L621 621 L622 622 L622 623 L623 624 L623 625 L624 626 L624 627 L625 628 L625 629 L626 630 L626 632 L628 634 L628 635 L629 636 L629 637 L630 638 L630 639 L632 641 L632 642 L633 643 L633 644 L635 646 L635 647 L637 649 L637 650 L639 652 L639 653 L642 656 L642 657 L645 660 L645 661 L649 665 L649 666 L664 681 L665 681 L670 686 L671 686 L674 689 L675 689 L678 692 L679 692 L681 694 L682 694 L683 695 L684 695 L686 697 L687 697 L688 698 L689 698 L690 699 L691 699 L692 700 L693 700 L694 701 L695 701 L696 702 L697 702 L698 703 L700 703 L701 704 L703 704 L704 705 L706 705 L707 706 L710 706 L711 707 L714 707 L715 708 L720 708 L721 709 L736 709 L737 708 L740 708 L741 707 L743 707 L744 706 L746 706 L747 705 L748 705 L749 704 L750 704 L751 703 L752 703 L753 702 L754 702 L757 699 L758 699 L771 686 L771 685 L774 682 L774 681 L776 679 L776 678 L778 676 L778 675 L779 674 L779 673 L780 672 L780 671 L782 669 L782 668 L783 667 L783 666 L784 665 L784 664 L785 663 L785 662 L786 661 L786 660 L787 659 L787 658 L788 657 L788 655 L789 654 L789 653 L790 652 L790 650 L791 649 L791 647 L792 646 L792 644 L793 643 L793 642 L794 641 L794 638 L795 637 L795 635 L796 634 L796 631 L797 630 L797 628 L798 627 L798 624 L799 623 L799 620 L800 619 L800 616 L801 615 L801 611 L802 610 L802 606 L803 605 L803 600 L804 599 L804 593 L805 592 L805 585 L806 584 L806 575 L807 574 L807 557 L808 556 L808 531 L807 530 L807 514 L806 513 L806 504 L805 503 L805 497 L804 496 L804 491 L803 490 L803 486 L802 485 L802 481 L801 480 L801 477 L800 476 L800 473 L799 472 L799 469 L798 468 L798 466 L797 465 L797 463 L796 462 L796 459 L795 458 L795 457 L794 456 L794 454 L793 453 L793 451 L792 450 L792 449 L791 448 L791 446 L790 445 L790 444 L789 443 L789 442 L788 441 L788 440 L787 439 L787 438 L786 437 L786 436 L785 435 L785 434 L783 432 L783 431 L782 430 L782 429 L779 426 L779 425 L777 423 L777 422 L772 417 L772 416 L767 411 L766 411 L762 407 L761 407 L759 405 L758 405 L757 404 L756 404 L754 402 L753 402 L752 401 L750 401 L749 400 L748 400 L747 399 L745 399 L744 398 L741 398 L740 397 L734 397 L733 396 Z" fill="#000000" stroke="#e5eef7" stroke-width="6" vector-effect="non-scaling-stroke" style="cursor: pointer;" stroke-linejoin="round" stroke-linecap="round"/></g>
      <g id="region-mouth"><path data-region="mouth" d="M467 932 L466 933 L454 933 L453 934 L445 934 L444 935 L438 935 L437 936 L432 936 L431 937 L427 937 L426 938 L422 938 L421 939 L418 939 L417 940 L414 940 L413 941 L411 941 L410 942 L408 942 L407 943 L404 943 L403 944 L402 944 L401 945 L399 945 L398 946 L396 946 L395 947 L394 947 L393 948 L391 948 L390 949 L389 949 L388 950 L387 950 L386 951 L385 951 L384 952 L383 952 L382 953 L381 953 L379 955 L378 955 L376 957 L375 957 L373 959 L372 959 L361 970 L361 971 L359 973 L359 974 L358 975 L358 976 L357 977 L357 979 L356 980 L356 982 L355 983 L355 997 L356 998 L356 1001 L357 1002 L357 1003 L358 1004 L358 1006 L359 1007 L359 1008 L360 1009 L360 1010 L362 1012 L362 1013 L363 1014 L363 1015 L368 1020 L368 1021 L372 1025 L373 1025 L377 1029 L378 1029 L380 1031 L381 1031 L383 1033 L384 1033 L386 1035 L387 1035 L388 1036 L389 1036 L391 1038 L392 1038 L393 1039 L394 1039 L395 1040 L397 1040 L398 1041 L399 1041 L400 1042 L401 1042 L402 1043 L404 1043 L405 1044 L406 1044 L407 1045 L409 1045 L410 1046 L412 1046 L413 1047 L415 1047 L416 1048 L418 1048 L419 1049 L422 1049 L423 1050 L426 1050 L427 1051 L431 1051 L432 1052 L437 1052 L438 1053 L444 1053 L445 1054 L455 1054 L456 1055 L486 1055 L487 1054 L497 1054 L498 1053 L505 1053 L506 1052 L511 1052 L512 1051 L517 1051 L518 1050 L522 1050 L523 1049 L527 1049 L528 1048 L531 1048 L532 1047 L536 1047 L537 1046 L539 1046 L540 1045 L543 1045 L544 1044 L547 1044 L548 1043 L550 1043 L551 1042 L554 1042 L555 1041 L557 1041 L558 1040 L560 1040 L561 1039 L563 1039 L564 1038 L566 1038 L567 1037 L568 1037 L569 1036 L571 1036 L572 1035 L574 1035 L575 1034 L577 1034 L578 1033 L579 1033 L580 1032 L582 1032 L583 1031 L584 1031 L585 1030 L586 1030 L587 1029 L589 1029 L590 1028 L591 1028 L592 1027 L593 1027 L594 1026 L595 1026 L596 1025 L597 1025 L598 1024 L599 1024 L600 1023 L601 1023 L602 1022 L603 1022 L605 1020 L606 1020 L607 1019 L608 1019 L610 1017 L611 1017 L612 1016 L613 1016 L615 1014 L616 1014 L619 1011 L620 1011 L623 1008 L624 1008 L633 999 L633 998 L636 995 L636 994 L637 993 L637 992 L638 991 L638 990 L639 989 L639 986 L640 985 L640 980 L639 979 L639 976 L638 975 L638 974 L636 972 L636 971 L630 965 L629 965 L626 962 L625 962 L623 960 L622 960 L620 958 L619 958 L618 957 L617 957 L616 956 L615 956 L614 955 L613 955 L612 954 L611 954 L610 953 L608 953 L607 952 L606 952 L605 951 L603 951 L602 950 L600 950 L599 949 L597 949 L596 948 L594 948 L593 947 L591 947 L590 946 L587 946 L586 945 L584 945 L583 944 L580 944 L579 943 L576 943 L575 942 L572 942 L571 941 L567 941 L566 940 L562 940 L561 939 L557 939 L556 938 L551 938 L550 937 L545 937 L544 936 L537 936 L536 935 L528 935 L527 934 L517 934 L516 933 L501 933 L500 932 Z" fill="#000000" stroke="#e5eef7" stroke-width="6" vector-effect="non-scaling-stroke" style="cursor: pointer;" stroke-linejoin="round" stroke-linecap="round"/></g>
      <path id="leftArm" d="M 103.60 1227.30 L103.60 1555.97 L106.56 1570.77 L119.88 1595.94 L140.60 1613.70 L165.76 1622.59 L190.92 1622.59 L210.16 1616.67 L227.92 1604.82 L239.76 1592.98 L251.60 1564.85 L253.08 1227.30 Z" fill="black"/>
        <path id="leftLeg" d="M 293.04 1227.30 L293.04 1561.89 L298.96 1894.99 L301.92 1917.20 L319.68 1954.21 L328.56 1966.05 L353.72 1989.74 L390.72 2008.99 L418.84 2014.91 L452.88 2014.91 L467.68 2011.95 L489.88 2004.55 L516.52 1989.74 L541.68 1966.05 L560.92 1937.93 L572.76 1900.91 L574.24 1227.30 Z" fill="black"/>
        <path id="rightLeg" d="M 871.72 1227.30 L871.72 1678.85 L874.68 1766.19 L874.68 1912.76 L877.64 1967.54 L883.56 1985.30 L890.96 1998.63 L905.76 2016.39 L922.04 2029.71 L939.80 2038.60 L962.00 2044.52 L1031.56 2046.00 L1058.20 2032.68 L1075.96 2013.43 L1090.76 1982.34 L1096.68 1958.65 L1099.64 1769.15 L1099.64 1227.30 Z" fill="black"/>
        <path id="rightArm" d="M 1136.64 1227.30 L1136.64 1578.17 L1139.60 1664.04 L1142.56 1674.40 L1149.96 1686.25 L1166.24 1702.53 L1179.56 1709.93 L1207.68 1712.90 L1221.00 1709.93 L1235.80 1702.53 L1253.56 1683.29 L1260.96 1668.48 L1262.44 1658.12 L1263.92 1227.30 Z" fill="black"/>
<path id="outline-plating" fill="none" stroke="#e5eef7" stroke-width="9" stroke-linejoin="round" stroke-linecap="round" d="M717 0 L716 1 L696 1 L695 2 L682 2 L681 3 L671 3 L670 4 L661 4 L660 5 L653 5 L652 6 L645 6 L644 7 L638 7 L637 8 L631 8 L630 9 L624 9 L623 10 L618 10 L617 11 L612 11 L611 12 L606 12 L605 13 L601 13 L600 14 L596 14 L595 15 L590 15 L589 16 L585 16 L584 17 L581 17 L580 18 L577 18 L576 19 L572 19 L571 20 L568 20 L567 21 L564 21 L563 22 L560 22 L559 23 L556 23 L555 24 L553 24 L552 25 L549 25 L548 26 L545 26 L544 27 L542 27 L541 28 L538 28 L537 29 L535 29 L534 30 L532 30 L531 31 L528 31 L527 32 L525 32 L524 33 L521 33 L520 34 L518 34 L517 35 L515 35 L514 36 L512 36 L511 37 L508 37 L507 38 L505 38 L504 39 L503 39 L502 40 L500 40 L499 41 L497 41 L496 42 L494 42 L493 43 L491 43 L490 44 L488 44 L487 45 L486 45 L485 46 L483 46 L482 47 L480 47 L479 48 L478 48 L477 49 L475 49 L474 50 L473 50 L472 51 L470 51 L469 52 L468 52 L467 53 L465 53 L464 54 L462 54 L461 55 L460 55 L459 56 L458 56 L457 57 L455 57 L454 58 L453 58 L452 59 L450 59 L449 60 L448 60 L447 61 L446 61 L445 62 L443 62 L442 63 L441 63 L440 64 L439 64 L438 65 L437 65 L436 66 L434 66 L433 67 L432 67 L431 68 L430 68 L429 69 L428 69 L427 70 L426 70 L425 71 L424 71 L423 72 L422 72 L421 73 L420 73 L419 74 L418 74 L417 75 L416 75 L415 76 L414 76 L413 77 L411 77 L409 79 L407 79 L406 80 L405 80 L404 81 L403 81 L402 82 L401 82 L400 83 L399 83 L397 85 L396 85 L395 86 L394 86 L393 87 L392 87 L391 88 L390 88 L389 89 L388 89 L387 90 L386 90 L384 92 L383 92 L382 93 L381 93 L380 94 L379 94 L377 96 L376 96 L375 97 L374 97 L373 98 L372 98 L371 99 L370 99 L368 101 L367 101 L366 102 L365 102 L364 103 L363 103 L361 105 L360 105 L359 106 L358 106 L356 108 L355 108 L353 110 L352 110 L351 111 L350 111 L348 113 L347 113 L345 115 L344 115 L343 116 L342 116 L340 118 L339 118 L337 120 L336 120 L334 122 L333 122 L332 123 L331 123 L328 126 L327 126 L325 128 L324 128 L322 130 L321 130 L319 132 L318 132 L315 135 L314 135 L312 137 L311 137 L308 140 L307 140 L305 142 L304 142 L301 145 L300 145 L298 147 L297 147 L293 151 L292 151 L289 154 L288 154 L285 157 L284 157 L280 161 L279 161 L275 165 L274 165 L269 170 L268 170 L264 174 L263 174 L257 180 L256 180 L249 187 L248 187 L239 196 L238 196 L197 237 L197 238 L188 247 L188 248 L180 256 L180 257 L175 262 L175 263 L169 269 L169 270 L165 274 L165 275 L161 279 L161 280 L157 284 L157 285 L154 288 L154 289 L151 292 L151 293 L148 296 L148 297 L145 300 L145 301 L142 304 L142 305 L140 307 L140 308 L137 311 L137 312 L134 315 L134 316 L132 318 L132 319 L130 321 L130 322 L128 324 L128 325 L125 328 L125 329 L124 330 L124 331 L122 333 L122 334 L120 336 L120 337 L118 339 L118 340 L116 342 L116 343 L115 344 L115 345 L113 347 L113 348 L111 350 L111 351 L110 352 L110 353 L108 355 L108 356 L106 358 L106 359 L105 360 L105 361 L103 363 L103 364 L102 365 L102 366 L100 368 L100 369 L99 370 L99 371 L98 372 L98 373 L97 374 L97 375 L95 377 L95 378 L94 379 L94 380 L93 381 L93 382 L92 383 L92 384 L90 386 L90 387 L89 388 L89 389 L88 390 L88 391 L87 392 L87 393 L86 394 L86 395 L84 397 L84 398 L83 399 L83 401 L81 403 L81 404 L80 405 L80 406 L79 407 L79 408 L78 409 L78 410 L77 411 L77 412 L76 413 L76 415 L75 416 L75 417 L74 418 L74 419 L73 420 L73 421 L72 422 L72 423 L71 424 L71 425 L70 426 L70 427 L69 428 L69 429 L68 430 L68 431 L67 432 L67 433 L66 434 L66 436 L65 437 L65 438 L64 439 L64 440 L63 441 L63 442 L62 443 L62 445 L61 446 L61 447 L60 448 L60 449 L59 450 L59 452 L58 453 L58 454 L57 455 L57 456 L56 457 L56 459 L55 460 L55 461 L54 462 L54 464 L53 465 L53 467 L52 468 L52 469 L51 470 L51 472 L50 473 L50 474 L49 475 L49 477 L48 478 L48 479 L47 480 L47 482 L46 483 L46 485 L45 486 L45 487 L44 488 L44 490 L43 491 L43 493 L42 494 L42 496 L41 497 L41 499 L40 500 L40 501 L39 502 L39 504 L38 505 L38 507 L37 508 L37 511 L36 512 L36 514 L35 515 L35 517 L34 518 L34 520 L33 521 L33 523 L32 524 L32 527 L31 528 L31 530 L30 531 L30 534 L29 535 L29 537 L28 538 L28 541 L27 542 L27 544 L26 545 L26 548 L25 549 L25 551 L24 552 L24 555 L23 556 L23 559 L22 560 L22 563 L21 564 L21 567 L20 568 L20 571 L19 572 L19 575 L18 576 L18 580 L17 581 L17 585 L16 586 L16 589 L15 590 L15 594 L14 595 L14 600 L13 601 L13 605 L12 606 L12 611 L11 612 L11 617 L10 618 L10 623 L9 624 L9 630 L8 631 L8 636 L7 637 L7 644 L6 645 L6 652 L5 653 L5 660 L4 661 L4 670 L3 671 L3 681 L2 682 L2 696 L1 697 L1 717 L0 718 L0 763 L1 764 L1 785 L2 786 L2 799 L3 800 L3 810 L4 811 L4 820 L5 821 L5 828 L6 829 L6 836 L7 837 L7 843 L8 844 L8 850 L9 851 L9 857 L10 858 L10 863 L11 864 L11 869 L12 870 L12 875 L13 876 L13 880 L14 881 L14 885 L15 886 L15 890 L16 891 L16 895 L17 896 L17 900 L18 901 L18 904 L19 905 L19 909 L20 910 L20 913 L21 914 L21 917 L22 918 L22 921 L23 922 L23 925 L24 926 L24 928 L25 929 L25 932 L26 933 L26 936 L27 937 L27 939 L28 940 L28 943 L29 944 L29 946 L30 947 L30 950 L31 951 L31 953 L32 954 L32 956 L33 957 L33 960 L34 961 L34 963 L35 964 L35 966 L36 967 L36 969 L37 970 L37 972 L38 973 L38 975 L39 976 L39 978 L40 979 L40 981 L41 982 L41 984 L42 985 L42 987 L43 988 L43 990 L44 991 L44 993 L45 994 L45 995 L46 996 L46 998 L47 999 L47 1000 L48 1001 L48 1003 L49 1004 L49 1006 L50 1007 L50 1008 L51 1009 L51 1011 L52 1012 L52 1013 L53 1014 L53 1016 L54 1017 L54 1018 L55 1019 L55 1021 L56 1022 L56 1024 L57 1025 L57 1026 L58 1027 L58 1028 L59 1029 L59 1031 L60 1032 L60 1033 L61 1034 L61 1035 L62 1036 L62 1038 L63 1039 L63 1040 L64 1041 L64 1042 L65 1043 L65 1044 L66 1045 L66 1046 L67 1047 L67 1049 L68 1050 L68 1051 L69 1052 L69 1053 L70 1054 L70 1055 L71 1056 L71 1057 L72 1058 L72 1059 L73 1060 L73 1061 L74 1062 L74 1063 L75 1064 L75 1065 L76 1066 L76 1068 L77 1069 L77 1070 L78 1071 L78 1072 L79 1073 L79 1074 L81 1076 L81 1077 L82 1078 L82 1080 L84 1082 L84 1083 L85 1084 L85 1085 L86 1086 L86 1087 L87 1088 L87 1089 L88 1090 L88 1091 L89 1092 L89 1093 L91 1095 L91 1096 L92 1097 L92 1098 L93 1099 L93 1104 L94 1105 L94 1111 L95 1112 L95 1118 L96 1119 L96 1125 L97 1126 L97 1133 L98 1134 L98 1141 L99 1142 L99 1150 L100 1151 L100 1161 L101 1162 L101 1172 L102 1173 L102 1185 L103 1186 L103 1200 L104 1201 L104 1221 L105 1222 L105 1295 L104 1296 L104 1317 L103 1318 L103 1440 L104 1441 L104 1518 L105 1519 L105 1557 L106 1558 L106 1563 L107 1564 L107 1568 L108 1569 L108 1571 L109 1572 L109 1574 L110 1575 L110 1577 L111 1578 L111 1579 L112 1580 L112 1581 L113 1582 L113 1583 L114 1584 L114 1585 L115 1586 L115 1587 L117 1589 L117 1590 L119 1592 L119 1593 L121 1595 L121 1596 L133 1608 L134 1608 L137 1611 L138 1611 L139 1612 L140 1612 L142 1614 L143 1614 L144 1615 L145 1615 L146 1616 L147 1616 L148 1617 L149 1617 L150 1618 L151 1618 L152 1619 L154 1619 L155 1620 L157 1620 L158 1621 L161 1621 L162 1622 L166 1622 L167 1623 L177 1623 L178 1624 L182 1624 L183 1623 L192 1623 L193 1622 L197 1622 L198 1621 L200 1621 L201 1620 L203 1620 L204 1619 L206 1619 L207 1618 L209 1618 L210 1617 L211 1617 L212 1616 L213 1616 L214 1615 L215 1615 L216 1614 L217 1614 L219 1612 L220 1612 L222 1610 L223 1610 L227 1606 L228 1606 L236 1598 L236 1597 L240 1593 L240 1592 L242 1590 L242 1589 L243 1588 L243 1587 L245 1585 L245 1584 L246 1583 L246 1582 L247 1581 L247 1579 L248 1578 L248 1577 L249 1576 L249 1574 L250 1573 L250 1571 L251 1570 L251 1567 L252 1566 L252 1562 L253 1561 L253 1548 L254 1547 L254 1509 L255 1508 L255 1465 L256 1464 L256 1408 L257 1407 L257 1343 L258 1342 L258 1338 L259 1337 L259 1332 L260 1331 L260 1327 L261 1326 L261 1325 L262 1324 L262 1323 L265 1320 L266 1320 L267 1319 L269 1319 L270 1318 L273 1318 L274 1319 L276 1319 L277 1320 L278 1320 L280 1322 L281 1322 L288 1329 L288 1330 L289 1331 L289 1332 L290 1333 L290 1334 L291 1335 L291 1336 L292 1337 L292 1339 L293 1340 L293 1414 L294 1415 L293 1416 L293 1425 L294 1426 L294 1562 L295 1563 L295 1645 L296 1646 L296 1710 L297 1711 L296 1712 L297 1713 L297 1767 L298 1768 L298 1813 L299 1814 L299 1858 L300 1859 L300 1896 L301 1897 L301 1910 L302 1911 L302 1914 L303 1915 L303 1918 L304 1919 L304 1920 L305 1921 L305 1923 L306 1924 L306 1926 L307 1927 L307 1928 L308 1929 L308 1931 L309 1932 L309 1933 L310 1934 L310 1935 L311 1936 L311 1937 L312 1938 L312 1939 L313 1940 L313 1941 L314 1942 L314 1943 L315 1944 L315 1945 L316 1946 L316 1947 L317 1948 L317 1949 L319 1951 L319 1952 L321 1954 L321 1955 L323 1957 L323 1958 L326 1961 L326 1962 L330 1966 L330 1967 L346 1983 L347 1983 L351 1987 L352 1987 L355 1990 L356 1990 L358 1992 L359 1992 L361 1994 L362 1994 L363 1995 L364 1995 L366 1997 L367 1997 L368 1998 L369 1998 L370 1999 L371 1999 L372 2000 L373 2000 L374 2001 L375 2001 L376 2002 L377 2002 L378 2003 L379 2003 L380 2004 L381 2004 L382 2005 L383 2005 L384 2006 L386 2006 L387 2007 L388 2007 L389 2008 L391 2008 L392 2009 L395 2009 L396 2010 L398 2010 L399 2011 L402 2011 L403 2012 L406 2012 L407 2013 L411 2013 L412 2014 L418 2014 L419 2015 L433 2015 L434 2016 L439 2016 L440 2015 L453 2015 L454 2014 L459 2014 L460 2013 L465 2013 L466 2012 L469 2012 L470 2011 L473 2011 L474 2010 L477 2010 L478 2009 L480 2009 L481 2008 L483 2008 L484 2007 L485 2007 L486 2006 L488 2006 L489 2005 L490 2005 L491 2004 L492 2004 L493 2003 L494 2003 L495 2002 L497 2002 L498 2001 L499 2001 L500 2000 L501 2000 L503 1998 L504 1998 L505 1997 L506 1997 L508 1995 L509 1995 L510 1994 L511 1994 L513 1992 L514 1992 L516 1990 L517 1990 L520 1987 L521 1987 L525 1983 L526 1983 L542 1967 L542 1966 L547 1961 L547 1960 L549 1958 L549 1957 L551 1955 L551 1954 L553 1952 L553 1951 L555 1949 L555 1948 L556 1947 L556 1946 L557 1945 L557 1944 L558 1943 L558 1942 L559 1941 L559 1940 L561 1938 L561 1936 L562 1935 L562 1934 L563 1933 L563 1932 L564 1931 L564 1930 L565 1929 L565 1927 L566 1926 L566 1924 L567 1923 L567 1922 L568 1921 L568 1919 L569 1918 L569 1915 L570 1914 L570 1912 L571 1911 L571 1907 L572 1906 L572 1902 L573 1901 L573 1895 L574 1894 L574 1883 L575 1882 L575 1872 L574 1871 L574 1860 L573 1859 L573 1593 L574 1592 L574 1547 L573 1546 L573 1529 L574 1528 L574 1507 L575 1506 L575 1495 L576 1494 L576 1486 L577 1485 L577 1483 L578 1482 L578 1480 L579 1479 L579 1478 L580 1477 L580 1476 L586 1470 L587 1470 L588 1469 L589 1469 L590 1468 L592 1468 L593 1467 L619 1467 L620 1468 L627 1468 L628 1469 L632 1469 L633 1470 L636 1470 L637 1471 L645 1471 L646 1472 L655 1472 L656 1473 L666 1473 L667 1474 L678 1474 L679 1475 L693 1475 L694 1476 L711 1476 L712 1477 L744 1477 L745 1478 L781 1478 L782 1477 L807 1477 L808 1476 L821 1476 L822 1475 L843 1475 L844 1474 L855 1474 L856 1475 L864 1475 L865 1476 L866 1476 L869 1479 L869 1480 L870 1481 L870 1482 L871 1483 L871 1484 L872 1485 L872 1489 L873 1490 L873 1674 L874 1675 L874 1677 L873 1678 L873 1680 L874 1681 L874 1766 L875 1767 L874 1768 L874 1769 L875 1770 L875 1771 L874 1772 L875 1773 L875 1842 L876 1843 L876 1911 L877 1912 L876 1913 L877 1914 L877 1957 L878 1958 L878 1963 L879 1964 L879 1968 L880 1969 L880 1972 L881 1973 L881 1975 L882 1976 L882 1978 L883 1979 L883 1981 L884 1982 L884 1984 L885 1985 L885 1986 L886 1987 L886 1988 L887 1989 L887 1990 L888 1991 L888 1992 L889 1993 L889 1994 L891 1996 L891 1997 L892 1998 L892 1999 L894 2001 L894 2002 L896 2004 L896 2005 L900 2009 L900 2010 L913 2023 L914 2023 L917 2026 L918 2026 L920 2028 L921 2028 L923 2030 L924 2030 L926 2032 L927 2032 L928 2033 L929 2033 L930 2034 L931 2034 L932 2035 L933 2035 L934 2036 L935 2036 L936 2037 L937 2037 L938 2038 L940 2038 L941 2039 L943 2039 L944 2040 L945 2040 L946 2041 L949 2041 L950 2042 L952 2042 L953 2043 L956 2043 L957 2044 L962 2044 L963 2045 L975 2045 L976 2046 L978 2046 L979 2045 L1005 2045 L1006 2046 L1032 2046 L1033 2045 L1036 2045 L1037 2044 L1039 2044 L1040 2043 L1041 2043 L1042 2042 L1044 2042 L1045 2041 L1046 2041 L1047 2040 L1048 2040 L1049 2039 L1050 2039 L1052 2037 L1053 2037 L1054 2036 L1055 2036 L1058 2033 L1059 2033 L1071 2021 L1071 2020 L1074 2017 L1074 2016 L1076 2014 L1076 2013 L1077 2012 L1077 2011 L1079 2009 L1079 2008 L1080 2007 L1080 2006 L1081 2005 L1081 2004 L1082 2003 L1082 2002 L1083 2001 L1083 2000 L1084 1999 L1084 1998 L1085 1997 L1085 1996 L1086 1995 L1086 1994 L1087 1993 L1087 1991 L1088 1990 L1088 1989 L1089 1988 L1089 1986 L1090 1985 L1090 1984 L1091 1983 L1091 1981 L1092 1980 L1092 1977 L1093 1976 L1093 1974 L1094 1973 L1094 1970 L1095 1969 L1095 1966 L1096 1965 L1096 1960 L1097 1959 L1097 1954 L1098 1953 L1098 1886 L1099 1885 L1099 1771 L1100 1770 L1100 1768 L1099 1767 L1100 1766 L1099 1765 L1100 1764 L1099 1763 L1100 1762 L1099 1761 L1100 1760 L1100 1681 L1099 1680 L1100 1679 L1099 1678 L1100 1677 L1099 1676 L1100 1675 L1099 1674 L1100 1673 L1100 1663 L1099 1662 L1099 1498 L1100 1497 L1100 1442 L1101 1441 L1101 1406 L1102 1405 L1102 1400 L1103 1399 L1103 1397 L1104 1396 L1104 1395 L1105 1394 L1105 1392 L1107 1390 L1107 1389 L1116 1380 L1117 1380 L1118 1379 L1119 1379 L1120 1378 L1126 1378 L1127 1379 L1128 1379 L1129 1380 L1130 1380 L1134 1384 L1134 1385 L1135 1386 L1135 1388 L1136 1389 L1136 1391 L1137 1392 L1137 1397 L1138 1398 L1138 1579 L1139 1580 L1139 1635 L1140 1636 L1140 1660 L1141 1661 L1141 1665 L1142 1666 L1142 1669 L1143 1670 L1143 1672 L1144 1673 L1144 1675 L1145 1676 L1145 1677 L1146 1678 L1146 1679 L1147 1680 L1147 1681 L1148 1682 L1148 1683 L1150 1685 L1150 1686 L1152 1688 L1152 1689 L1164 1701 L1165 1701 L1167 1703 L1168 1703 L1170 1705 L1171 1705 L1172 1706 L1173 1706 L1174 1707 L1175 1707 L1176 1708 L1178 1708 L1179 1709 L1180 1709 L1181 1710 L1183 1710 L1184 1711 L1188 1711 L1189 1712 L1194 1712 L1195 1713 L1208 1713 L1209 1712 L1215 1712 L1216 1711 L1218 1711 L1219 1710 L1221 1710 L1222 1709 L1224 1709 L1225 1708 L1227 1708 L1228 1707 L1229 1707 L1230 1706 L1231 1706 L1233 1704 L1234 1704 L1235 1703 L1236 1703 L1239 1700 L1240 1700 L1250 1690 L1250 1689 L1252 1687 L1252 1686 L1254 1684 L1254 1683 L1255 1682 L1255 1681 L1256 1680 L1256 1679 L1257 1678 L1257 1677 L1258 1676 L1258 1675 L1259 1674 L1259 1672 L1260 1671 L1260 1670 L1261 1669 L1261 1666 L1262 1665 L1262 1660 L1263 1659 L1263 1612 L1264 1611 L1264 1517 L1265 1516 L1265 1405 L1266 1404 L1266 1282 L1267 1281 L1267 1277 L1268 1276 L1268 1272 L1269 1271 L1269 1269 L1270 1268 L1270 1266 L1271 1265 L1271 1263 L1272 1262 L1272 1261 L1273 1260 L1273 1259 L1274 1258 L1274 1257 L1275 1256 L1275 1255 L1276 1254 L1276 1253 L1277 1252 L1277 1251 L1280 1248 L1280 1247 L1291 1236 L1291 1235 L1298 1228 L1298 1227 L1305 1220 L1305 1219 L1310 1214 L1310 1213 L1314 1209 L1314 1208 L1318 1204 L1318 1203 L1322 1199 L1322 1198 L1326 1194 L1326 1193 L1329 1190 L1329 1189 L1333 1185 L1333 1184 L1335 1182 L1335 1181 L1338 1178 L1338 1177 L1340 1175 L1340 1174 L1343 1171 L1343 1170 L1346 1167 L1346 1166 L1348 1164 L1348 1163 L1351 1160 L1351 1159 L1353 1157 L1353 1156 L1355 1154 L1355 1153 L1357 1151 L1357 1150 L1358 1149 L1358 1148 L1360 1146 L1360 1145 L1362 1143 L1362 1142 L1364 1140 L1364 1139 L1366 1137 L1366 1136 L1368 1134 L1368 1133 L1369 1132 L1369 1131 L1371 1129 L1371 1128 L1372 1127 L1372 1126 L1374 1124 L1374 1123 L1376 1121 L1376 1120 L1377 1119 L1377 1118 L1379 1116 L1379 1115 L1380 1114 L1380 1113 L1381 1112 L1381 1111 L1382 1110 L1382 1109 L1384 1107 L1384 1106 L1385 1105 L1385 1104 L1386 1103 L1386 1102 L1387 1101 L1387 1100 L1389 1098 L1389 1097 L1390 1096 L1390 1095 L1391 1094 L1391 1093 L1393 1091 L1393 1090 L1394 1089 L1394 1088 L1395 1087 L1395 1086 L1396 1085 L1396 1084 L1397 1083 L1397 1082 L1398 1081 L1398 1080 L1399 1079 L1399 1078 L1400 1077 L1400 1076 L1401 1075 L1401 1074 L1402 1073 L1402 1072 L1403 1071 L1403 1070 L1404 1069 L1404 1068 L1405 1067 L1405 1066 L1406 1065 L1406 1064 L1407 1063 L1407 1062 L1408 1061 L1408 1060 L1409 1059 L1409 1058 L1410 1057 L1410 1056 L1411 1055 L1411 1053 L1412 1052 L1412 1051 L1413 1050 L1413 1049 L1414 1048 L1414 1047 L1415 1046 L1415 1045 L1416 1044 L1416 1043 L1417 1042 L1417 1041 L1418 1040 L1418 1038 L1419 1037 L1419 1036 L1420 1035 L1420 1034 L1421 1033 L1421 1031 L1422 1030 L1422 1029 L1423 1028 L1423 1026 L1424 1025 L1424 1024 L1425 1023 L1425 1021 L1426 1020 L1426 1019 L1427 1018 L1427 1016 L1428 1015 L1428 1014 L1429 1013 L1429 1011 L1430 1010 L1430 1009 L1431 1008 L1431 1006 L1432 1005 L1432 1004 L1433 1003 L1433 1001 L1434 1000 L1434 998 L1435 997 L1435 996 L1436 995 L1436 993 L1437 992 L1437 990 L1438 989 L1438 988 L1439 987 L1439 985 L1440 984 L1440 982 L1441 981 L1441 979 L1442 978 L1442 976 L1443 975 L1443 973 L1444 972 L1444 970 L1445 969 L1445 966 L1446 965 L1446 963 L1447 962 L1447 960 L1448 959 L1448 957 L1449 956 L1449 953 L1450 952 L1450 950 L1451 949 L1451 947 L1452 946 L1452 943 L1453 942 L1453 940 L1454 939 L1454 936 L1455 935 L1455 932 L1456 931 L1456 929 L1457 928 L1457 925 L1458 924 L1458 921 L1459 920 L1459 917 L1460 916 L1460 913 L1461 912 L1461 909 L1462 908 L1462 904 L1463 903 L1463 900 L1464 899 L1464 895 L1465 894 L1465 891 L1466 890 L1466 885 L1467 884 L1467 880 L1468 879 L1468 875 L1469 874 L1469 869 L1470 868 L1470 863 L1471 862 L1471 857 L1472 856 L1472 850 L1473 849 L1473 843 L1474 842 L1474 836 L1475 835 L1475 828 L1476 827 L1476 819 L1477 818 L1477 810 L1478 809 L1478 798 L1479 797 L1479 783 L1480 782 L1480 699 L1479 698 L1479 684 L1478 683 L1478 672 L1477 671 L1477 662 L1476 661 L1476 654 L1475 653 L1475 646 L1474 645 L1474 638 L1473 637 L1473 632 L1472 631 L1472 625 L1471 624 L1471 619 L1470 618 L1470 613 L1469 612 L1469 607 L1468 606 L1468 602 L1467 601 L1467 596 L1466 595 L1466 592 L1465 591 L1465 586 L1464 585 L1464 582 L1463 581 L1463 577 L1462 576 L1462 573 L1461 572 L1461 569 L1460 568 L1460 565 L1459 564 L1459 561 L1458 560 L1458 557 L1457 556 L1457 553 L1456 552 L1456 549 L1455 548 L1455 546 L1454 545 L1454 542 L1453 541 L1453 539 L1452 538 L1452 535 L1451 534 L1451 532 L1450 531 L1450 529 L1449 528 L1449 525 L1448 524 L1448 522 L1447 521 L1447 519 L1446 518 L1446 515 L1445 514 L1445 512 L1444 511 L1444 509 L1443 508 L1443 506 L1442 505 L1442 503 L1441 502 L1441 500 L1440 499 L1440 497 L1439 496 L1439 494 L1438 493 L1438 492 L1437 491 L1437 489 L1436 488 L1436 486 L1435 485 L1435 484 L1434 483 L1434 481 L1433 480 L1433 478 L1432 477 L1432 476 L1431 475 L1431 473 L1430 472 L1430 470 L1429 469 L1429 468 L1428 467 L1428 466 L1427 465 L1427 463 L1426 462 L1426 461 L1425 460 L1425 458 L1424 457 L1424 455 L1423 454 L1423 453 L1422 452 L1422 451 L1421 450 L1421 448 L1420 447 L1420 446 L1419 445 L1419 444 L1418 443 L1418 441 L1417 440 L1417 439 L1416 438 L1416 437 L1415 436 L1415 435 L1414 434 L1414 433 L1413 432 L1413 430 L1412 429 L1412 428 L1411 427 L1411 426 L1410 425 L1410 424 L1409 423 L1409 422 L1408 421 L1408 420 L1407 419 L1407 418 L1406 417 L1406 416 L1405 415 L1405 414 L1404 413 L1404 412 L1403 411 L1403 410 L1402 409 L1402 408 L1401 407 L1401 406 L1400 405 L1400 404 L1399 403 L1399 402 L1398 401 L1398 400 L1397 399 L1397 398 L1396 397 L1396 396 L1395 395 L1395 394 L1394 393 L1394 392 L1393 391 L1393 390 L1391 388 L1391 387 L1390 386 L1390 385 L1389 384 L1389 383 L1388 382 L1388 381 L1387 380 L1387 379 L1385 377 L1385 376 L1384 375 L1384 374 L1383 373 L1383 372 L1381 370 L1381 369 L1380 368 L1380 367 L1379 366 L1379 365 L1377 363 L1377 362 L1376 361 L1376 360 L1374 358 L1374 357 L1373 356 L1373 355 L1371 353 L1371 352 L1369 350 L1369 349 L1368 348 L1368 347 L1366 345 L1366 344 L1364 342 L1364 341 L1363 340 L1363 339 L1361 337 L1361 336 L1359 334 L1359 333 L1357 331 L1357 330 L1355 328 L1355 327 L1353 325 L1353 324 L1351 322 L1351 321 L1349 319 L1349 318 L1346 315 L1346 314 L1343 311 L1343 310 L1341 308 L1341 307 L1339 305 L1339 304 L1336 301 L1336 300 L1333 297 L1333 296 L1330 293 L1330 292 L1327 289 L1327 288 L1323 284 L1323 283 L1319 279 L1319 278 L1315 274 L1315 273 L1311 269 L1311 268 L1305 262 L1305 261 L1299 255 L1299 254 L1291 246 L1291 245 L1283 237 L1283 236 L1244 197 L1243 197 L1235 189 L1234 189 L1226 181 L1225 181 L1220 176 L1219 176 L1213 170 L1212 170 L1208 166 L1207 166 L1203 162 L1202 162 L1198 158 L1197 158 L1193 154 L1192 154 L1189 151 L1188 151 L1185 148 L1184 148 L1181 145 L1180 145 L1177 142 L1176 142 L1174 140 L1173 140 L1171 138 L1170 138 L1167 135 L1166 135 L1163 132 L1162 132 L1160 130 L1159 130 L1157 128 L1156 128 L1154 126 L1153 126 L1151 124 L1150 124 L1148 122 L1147 122 L1145 120 L1144 120 L1142 118 L1141 118 L1140 117 L1139 117 L1137 115 L1136 115 L1134 113 L1133 113 L1131 111 L1130 111 L1129 110 L1128 110 L1126 108 L1125 108 L1124 107 L1123 107 L1121 105 L1120 105 L1119 104 L1118 104 L1116 102 L1115 102 L1114 101 L1113 101 L1111 99 L1110 99 L1109 98 L1108 98 L1107 97 L1106 97 L1105 96 L1104 96 L1102 94 L1101 94 L1100 93 L1099 93 L1098 92 L1097 92 L1096 91 L1095 91 L1093 89 L1092 89 L1091 88 L1090 88 L1089 87 L1088 87 L1087 86 L1086 86 L1085 85 L1084 85 L1083 84 L1082 84 L1080 82 L1079 82 L1078 81 L1076 81 L1075 80 L1074 80 L1072 78 L1070 78 L1069 77 L1068 77 L1067 76 L1066 76 L1065 75 L1064 75 L1063 74 L1062 74 L1061 73 L1060 73 L1059 72 L1058 72 L1057 71 L1056 71 L1055 70 L1054 70 L1053 69 L1052 69 L1051 68 L1050 68 L1049 67 L1048 67 L1047 66 L1045 66 L1044 65 L1043 65 L1042 64 L1041 64 L1040 63 L1039 63 L1038 62 L1036 62 L1035 61 L1034 61 L1033 60 L1032 60 L1031 59 L1029 59 L1028 58 L1027 58 L1026 57 L1024 57 L1023 56 L1022 56 L1021 55 L1019 55 L1018 54 L1017 54 L1016 53 L1014 53 L1013 52 L1012 52 L1011 51 L1009 51 L1008 50 L1007 50 L1006 49 L1004 49 L1003 48 L1001 48 L1000 47 L999 47 L998 46 L996 46 L995 45 L993 45 L992 44 L991 44 L990 43 L988 43 L987 42 L985 42 L984 41 L982 41 L981 40 L980 40 L979 39 L976 39 L975 38 L974 38 L973 37 L970 37 L969 36 L967 36 L966 35 L964 35 L963 34 L961 34 L960 33 L957 33 L956 32 L954 32 L953 31 L951 31 L950 30 L947 30 L946 29 L944 29 L943 28 L940 28 L939 27 L937 27 L936 26 L933 26 L932 25 L929 25 L928 24 L926 24 L925 23 L922 23 L921 22 L918 22 L917 21 L914 21 L913 20 L910 20 L909 19 L905 19 L904 18 L901 18 L900 17 L896 17 L895 16 L891 16 L890 15 L886 15 L885 14 L881 14 L880 13 L876 13 L875 12 L870 12 L869 11 L864 11 L863 10 L858 10 L857 9 L851 9 L850 8 L844 8 L843 7 L837 7 L836 6 L829 6 L828 5 L820 5 L819 4 L811 4 L810 3 L800 3 L799 2 L785 2 L784 1 L764 1 L763 0 Z"/>
        </svg>